PathFileType	4	(X/Y/Z)	1_Data\ik.trc
DataRate	CameraRate	NumFrames	NumMarkers	Units	OrigDataRate	OrigDataStartFrame	OrigNumFrames
120.000000	120.000000	4	54	mm	120.000000	114	131
Frame#	Time	Sternum			Neck			RShoulder			LShoulder			Xiphoid			Thoracic			RAsis			LAsis			RPsis			LPsis			Lumbar			RElbow			RWrist			RRadius			RUlna			LElbow			LWrist			LUlna			LRadius			LThighSuperior			LThighInferior			LThighLateral			LPatella			LShankSuperior			LShankInferior			LShankLateral			RThighSuperior			RThighInferior			RThighLateral			RPatella			RShankSuperior			RShankInferior			RShankLateral			RHeel			RToe			RMidfootMedial			RMidfootLateral			RHindfoot			RMidfootSuperior			RToeMedial			RToeLateral			LHeel			LToe			LMidfootMedial			LMidfootLateral			LHindfoot			LMidfootSuperior			LToeMedial			LToeLateral			Oglobal			Sacral			Xglobal			Yglobal			Zglobal			
		X1	Y1	Z1	X2	Y2	Z2	X3	Y3	Z3	X4	Y4	Z4	X5	Y5	Z5	X6	Y6	Z6	X7	Y7	Z7	X8	Y8	Z8	X9	Y9	Z9	X10	Y10	Z10	X11	Y11	Z11	X12	Y12	Z12	X13	Y13	Z13	X14	Y14	Z14	X15	Y15	Z15	X16	Y16	Z16	X17	Y17	Z17	X18	Y18	Z18	X19	Y19	Z19	X20	Y20	Z20	X21	Y21	Z21	X22	Y22	Z22	X23	Y23	Z23	X24	Y24	Z24	X25	Y25	Z25	X26	Y26	Z26	X27	Y27	Z27	X28	Y28	Z28	X29	Y29	Z29	X30	Y30	Z30	X31	Y31	Z31	X32	Y32	Z32	X33	Y33	Z33	X34	Y34	Z34	X35	Y35	Z35	X36	Y36	Z36	X37	Y37	Z37	X38	Y38	Z38	X39	Y39	Z39	X40	Y40	Z40	X41	Y41	Z41	X42	Y42	Z42	X43	Y43	Z43	X44	Y44	Z44	X45	Y45	Z45	X46	Y46	Z46	X47	Y47	Z47	X48	Y48	Z48	X49	Y49	Z49	X50	Y50	Z50	X51	Y51	Z51	X52	Y52	Z52	X53	Y53	Z53	X54	Y54	Z54	

115	0.9500000000000002	1036.63720703125	1445.354125976562	122.1044387817383	875.1011962890625	1544.017578125	147.8582305908203	941.9358520507812	1527.066772460938	301.3978576660156	887.8026733398438	1534.078125	4.151402473449721	1070.767944335938	1286.663330078125	122.9994430541993	793.3502197265625	1326.737915039062	160.6285552978516	998.7067260742188	1025.79736328125	268.6269226074219	977.54150390625	1013.111022949219	-5.125455856323184	802.2033081054688	1043.869506835938	204.1976776123047	788.7491455078125	1037.397338867188	101.8128356933594	792.9031982421875	1109.358154296875	136.0541534423828	944.7740478515625	1196.081787109375	421.6762695312501	1135.802490234375	1001.924255371094	442.2716674804688	1154.0283203125	1003.542297363281	392.6110229492188	1102.063598632812	971.1968994140625	445.1057128906251	800.1029052734375	1203.393188476562	-95.78337860107419	823.6381225585938	948.3004760742188	-173.0718841552734	789.0505981445312	945.9802856445312	-141.0613403320312	866.5717163085938	936.4613037109375	-150.7678833007812	950.3777465820312	846.545654296875	-58.83848571777337	1056.104370117188	638.4879150390625	-45.62866210937491	1094.599365234375	762.1605834960938	0.7340736985207478	1167.551147460938	574.8983764648438	6.314783096313584	1089.210815429688	411.5109252929688	-58.07930755615224	1073.333862304688	210.3541870117188	-22.0613384246825	1125.899658203125	308.0099487304688	7.137206554412961	928.0791625976562	825.0352172851562	317.3761901855469	906.3552856445312	586.1016235351562	284.0291137695313	1003.840698242188	731.9149780273438	239.5390930175782	968.0784912109375	509.3667907714844	221.6221771240235	865.7894897460938	429.1049499511719	289.1275939941407	822.5662231445312	177.479721069336	250.4210662841798	893.5742797851562	297.2444763183594	208.3602142333985	717.4226684570312	67.82068634033205	195.2549896240235	1034.207641601562	47.44631576538087	207.5970611572267	937.7296142578125	32.58612060546876	155.795135498047	932.274169921875	29.44231605529787	274.8973388671876	878.0409545898438	31.33334541320803	264.9668579101564	902.1480712890625	94.99456787109376	205.9701538085939	981.196533203125	34.17583084106446	159.6416625976564	981.2221069335938	34.66831970214845	263.1224365234376	998.556396484375	90.18761444091797	45.76570510864269	1297.17138671875	78.75844573974609	-37.90592193603501	1212.8740234375	56.01032638549805	37.09085464477554	1187.408447265625	45.88159942626952	-73.98617553710923	1137.153930664062	46.85566711425781	-54.75733184814439	1180.137573242188	117.1074676513672	-10.4164304733275	1252.6630859375	57.51113891601562	23.84731674194351	1230.895385742188	57.04516983032226	-77.86498260498031	0	0	0	795.4761962890625	1040.633422851562	153.0052642822266	-200	0	-2.449293598294706e-14	-2.449293598294706e-14	1.224646799147353e-14	200	1.499759782661858e-30	200	-1.224646799147353e-14	
116	0.9583333333333335	1045.156127929688	1444.3134765625	121.7412033081055	883.6622924804688	1543.249389648438	147.2569427490235	950.0545043945312	1526.1650390625	300.8181762695312	896.6575927734375	1533.336547851562	3.519569158554093	1078.954467773438	1285.650512695312	122.8101119995118	801.4786376953125	1326.122436523438	159.4501647949219	1005.720642089844	1025.26904296875	268.5225219726563	986.0362548828125	1011.977661132812	-5.504201889038027	809.572509765625	1043.138916015625	202.9713439941407	796.76904296875	1036.653686523438	100.4963455200196	800.6604614257812	1108.585327148438	134.5471649169922	955.2528686523438	1195.48583984375	421.5586242675782	1149.748901367188	1004.810302734375	441.4454650878907	1168.15966796875	1006.939147949219	391.9414062500001	1116.984619140625	973.5673217773438	444.6579895019532	806.0451049804688	1203.343383789062	-95.67497253417966	827.3324584960938	948.115966796875	-172.6937713623046	792.9202270507812	945.9263916015625	-140.3223419189453	870.2691040039062	935.563720703125	-150.4164886474609	958.1043701171875	845.5423583984375	-59.61793518066399	1062.180419921875	636.7777099609375	-44.53515243530264	1101.434936523438	760.2454223632812	1.648649692535489	1173.617553710938	574.9113159179688	7.856538295745958	1101.8955078125	410.207763671875	-58.56240844726552	1095.460571289062	207.3588562011719	-24.06404876708972	1143.623291015625	307.3832397460938	5.419521808624389	933.67724609375	824.5911865234375	316.8647155761719	910.2228393554688	585.7215576171875	283.7950744628907	1009.425170898438	730.821044921875	239.6721649169922	971.3726806640625	508.2464599609375	221.5550689697266	868.363037109375	428.9061889648438	288.8563842773439	823.2254028320312	177.6099395751953	250.2676849365236	895.5714111328125	296.9322204589844	208.3891754150391	717.3840942382812	68.0942840576172	195.3965301513673	1034.259887695312	47.16028213500978	207.5405578613282	937.6582641601562	32.60118103027344	155.6174468994142	932.39697265625	29.51230812072756	275.0924377441407	878.6007690429688	31.21764564514162	264.9359436035157	902.3583374023438	95.14205932617189	205.8287048339845	981.236572265625	34.06447982788087	159.5506744384767	981.1967163085938	34.55582427978517	263.031463623047	1026.35791015625	84.13623046875	42.61535263061536	1325.007568359375	84.98921966552734	-42.2761497497557	1241.907958984375	58.6114616394043	33.06586837768569	1216.345947265625	47.84295272827148	-78.08366394042955	1166.611694335938	46.38937759399413	-58.13604736328111	1206.534057617188	118.5012435913086	-14.08680534362779	1281.642333984375	61.77147674560547	19.58087921142593	1259.480102539062	60.79230880737304	-82.04254913330062	0	0	0	803.1707763671875	1039.896240234375	151.7338409423828	-200	0	-2.449293598294706e-14	-2.449293598294706e-14	1.224646799147353e-14	200	1.499759782661858e-30	200	-1.224646799147353e-14	
117	0.9666666666666669	1053.648681640625	1443.122924804688	121.3048400878907	892.3038330078125	1542.376831054688	146.5687866210938	958.2743530273438	1525.204223632812	300.1321716308594	905.6080322265625	1532.555908203125	2.794788837432879	1087.246215820312	1284.518676757812	122.6786727905274	809.5230712890625	1325.422241210938	158.2882995605469	1012.741271972656	1024.433227539062	268.4950256347657	994.7426147460938	1010.985961914062	-5.766549110412538	817.0117797851562	1042.291137695312	201.7000732421876	804.8984375	1035.715454101562	99.18561553955082	808.5142211914062	1107.68408203125	133.1455993652344	965.664794921875	1194.734619140625	421.2416076660157	1163.626342773438	1007.705993652344	440.5754699707032	1181.920532226562	1010.241271972656	390.9757385253907	1131.606201171875	975.830078125	443.8573303222657	812.106689453125	1203.325927734375	-95.75460815429685	831.6441650390625	947.6974487304688	-171.7814941406249	797.297119140625	945.6845703125	-139.5658416748047	874.2491455078125	934.9453125	-150.1371002197265	965.7839965820312	844.41259765625	-60.76216506958001	1067.90283203125	634.8443603515625	-43.19638824462881	1108.015625	758.0767211914062	2.512068033218473	1179.762817382812	574.584228515625	9.408028602600206	1113.537475585938	407.9311218261719	-58.93377304077138	1116.860107421875	205.7859039306641	-26.63918495178211	1160.791381835938	307.5241088867188	3.788393020630006	939.46337890625	824.152587890625	316.6755371093751	914.1036987304688	585.3635864257812	283.4788513183594	1015.448913574219	729.9775390625	239.8080444335938	974.6431274414062	507.0240478515625	221.3903198242188	871.1165161132812	428.864990234375	288.5603942871095	824.0008544921875	177.7787322998047	250.1751708984376	897.3410034179688	296.4879455566406	208.4871368408204	717.537841796875	68.18102264404298	195.364471435547	1034.361083984375	46.89183044433595	207.532440185547	937.7581787109375	32.49425888061524	155.6247406005861	932.4182739257812	29.4683418273926	275.1520996093751	878.075439453125	31.26954650878908	265.0029602050782	902.5521850585938	95.1264114379883	205.7876434326173	981.315185546875	33.87226486206055	159.5467376708986	981.2708129882812	34.4193687438965	263.0272521972657	1054.0224609375	79.03701782226562	39.50411224365246	1352.000854492188	91.70357513427734	-46.44721221923812	1270.286499023438	61.98537445068359	29.06435012817398	1244.675048828125	50.91474151611327	-82.26726531982406	1194.91650390625	47.0185317993164	-61.92903518676743	1232.686645507812	120.954475402832	-17.99886703491197	1309.773803710938	66.62020874023438	15.46886730194107	1287.2021484375	65.38771057128906	-86.06163787841781	0	0	0	810.9551391601562	1039.003295898438	150.4428405761719	-200	0	-2.449293598294706e-14	-2.449293598294706e-14	1.224646799147353e-14	200	1.499759782661858e-30	200	-1.224646799147353e-14	
118	0.9750000000000002	1060.76513671875	1440.510864257812	119.9806518554688	900.9182739257812	1541.45068359375	145.7466125488282	966.4923095703125	1524.219360351562	299.38232421875	914.6975708007812	1531.623901367188	1.986002802848834	1095.568359375	1283.270385742188	122.4564437866211	817.6220703125	1324.639404296875	156.983139038086	1019.806213378906	1023.475891113281	268.3323669433594	1003.612426757812	1009.822631835938	-6.004055500030457	824.530029296875	1041.396484375	200.2398376464844	813.1107788085938	1034.735473632812	97.70655822753911	816.5248413085938	1106.734008789062	131.5856933593751	975.9262084960938	1193.820068359375	420.6391296386719	1177.109497070312	1010.376586914062	439.4755859375001	1195.282104492188	1013.4609375	389.9171752929689	1145.684692382812	978.0616455078125	442.7236633300782	818.3580322265625	1203.195556640625	-95.91855621337888	836.1338500976562	947.2069091796875	-171.5443878173828	801.80908203125	945.5541381835938	-139.1360931396484	879.0072631835938	934.3788452148438	-149.7009887695312	973.65478515625	843.144775390625	-61.45071029663079	1073.517333984375	632.633056640625	-41.55860137939443	1114.44921875	755.6758422851562	3.295756101608367	1185.166381835938	572.8909301757812	10.75286006927501	1124.8525390625	406.5431213378906	-59.09630584716786	1138.019287109375	204.3289947509766	-28.86067581176745	1177.54638671875	307.8074951171875	2.346161842346317	945.2799682617188	823.6658935546875	316.2070007324219	917.9769897460938	584.9390869140625	283.1762390136719	1021.818420410156	729.3269653320312	239.9430694580079	978.1834106445312	505.9422302246094	221.2689361572266	873.8162231445312	428.8214111328125	288.234344482422	824.7821655273438	177.9683837890625	249.9775848388673	899.156494140625	295.9899597167969	208.3789520263673	717.8289794921875	68.25962066650392	195.0726623535157	1034.22119140625	46.67299270629884	207.4815826416017	937.7106323242188	32.42567443847657	155.5706939697267	932.4550170898438	29.43521881103517	275.2651672363282	878.7785034179688	31.04248809814455	264.7966613769532	902.4835205078125	95.09921264648439	205.6652832031251	981.181396484375	33.7278175354004	159.4689941406251	981.0839233398438	34.28104400634767	262.949432373047	1080.815307617188	74.87983703613281	36.37178421020521	1378.123901367188	99.14373779296875	-50.34793090820296	1297.533081054688	65.99736785888672	25.04994201660172	1272.366577148438	54.2806053161621	-85.91941070556625	1222.571533203125	49.01686096191406	-65.85060882568344	1257.595336914062	123.4804000854492	-21.31200218200669	1336.866943359375	72.23063659667969	11.45379352569596	1314.423095703125	70.45724487304688	-90.09701538085922	0	0	0	818.8203735351562	1038.06591796875	148.9732055664063	-200	0	-2.449293598294706e-14	-2.449293598294706e-14	1.224646799147353e-14	200	1.499759782661858e-30	200	-1.224646799147353e-14	
